<svg height="496pt" viewBox="0 0 496 496" width="496pt" xmlns="http://www.w3.org/2000/svg" xmlns:xlink="http://www.w3.org/1999/xlink"><linearGradient id="linear0" gradientUnits="userSpaceOnUse" x1="248" x2="248" y1="496" y2="0"><stop offset="0" stop-color="#9f2fff"/><stop offset="1" stop-color="#0bb1d3"/></linearGradient><path d="m248 152c0-52.9375-43.0625-96-96-96s-96 43.0625-96 96 43.0625 96 96 96 96-43.0625 96-96zm-176 0c0-44.113281 35.886719-80 80-80s80 35.886719 80 80-35.886719 80-80 80-80-35.886719-80-80zm144 0c0-35.289062-28.710938-64-64-64s-64 28.710938-64 64 28.710938 64 64 64 64-28.710938 64-64zm-112 0c0-26.472656 21.527344-48 48-48s48 21.527344 48 48-21.527344 48-48 48-48-21.527344-48-48zm337.742188 34.960938 14.707031-24.664063-42.753907-42.753906-24.664062 14.703125c-19.503906-12.855469-40.910156-21.726563-63.773438-26.421875l-7.027343-27.824219h-45.757813l8.382813-14.113281-42.734375-42.734375-26.449219 15.703125c-6.945313-3.664063-14.265625-6.6875-21.847656-9.023438l-7.609375-29.832031h-60.429688l-7.609375 29.832031c-7.582031 2.335938-14.902343 5.367188-21.847656 9.023438l-26.441406-15.703125-42.734375 42.734375 15.703125 26.449219c-3.664063 6.945312-6.6875 14.265624-9.023438 21.847656l-29.832031 7.601562v60.429688l29.832031 7.609375c2.335938 7.582031 5.367188 14.902343 9.023438 21.847656l-15.703125 26.449219 42.734375 42.734375 14.113281-8.390625v45.757812l27.832031 7.042969c4.6875 22.855469 13.558594 44.269531 26.425781 63.78125l-14.707031 24.65625 42.753907 42.753906 24.664062-14.703125c19.503906 12.855469 40.910156 21.726563 63.773438 26.421875l7.027343 27.824219h60.460938l7.035156-27.832031c22.863281-4.695313 44.269531-13.558594 63.773437-26.425781l24.664063 14.707031 42.753906-42.753907-14.703125-24.65625c12.855469-19.503906 21.726563-40.917968 26.421875-63.78125l27.824219-7.035156v-60.453125l-27.832031-7.042969c-4.6875-22.855468-13.558594-44.261718-26.425781-63.765624zm-398.476563 48.632812 14.078125-23.714844-2.335938-4.054687c-4.792968-8.296875-8.503906-17.28125-11.03125-26.695313l-1.214843-4.519531-26.761719-6.824219v-35.570312l26.753906-6.816406 1.214844-4.519532c2.527344-9.414062 6.246094-18.398437 11.03125-26.695312l2.335938-4.054688-14.078126-23.714844 25.148438-25.148437 23.714844 14.078125 4.054687-2.335938c8.296875-4.792968 17.28125-8.503906 26.695313-11.03125l4.519531-1.214843 6.824219-26.761719h35.570312l6.816406 26.753906 4.519532 1.214844c9.414062 2.527344 18.398437 6.246094 26.695312 11.03125l4.054688 2.335938 23.714844-14.078126 25.148437 25.148438-14.078125 23.714844 2.335938 4.054687c4.792968 8.296875 8.503906 17.28125 11.03125 26.695313l1.214843 4.519531 26.761719 6.824219v35.570312l-26.753906 6.816406-1.214844 4.519532c-2.527344 9.414062-6.246094 18.398437-11.03125 26.695312l-2.335938 4.054688 14.078126 23.714844-25.148438 25.148437-23.714844-14.085937-4.054687 2.335937c-8.296875 4.792969-17.28125 8.503906-26.695313 11.03125l-4.519531 1.214844-6.824219 26.769531h-35.570312l-6.816406-26.753906-4.519532-1.214844c-9.414062-2.527344-18.398437-6.246094-26.695312-11.03125l-4.054688-2.335938-23.714844 14.089844zm260.734375-53.378906v-13.039063c58.953125 7.863281 104 58.433594 104 118.824219 0 66.167969-53.832031 120-120 120-60.390625 0-110.960938-45.046875-118.832031-104h13.039062l7.609375-29.832031c4.136719-1.28125 8.167969-2.800781 12.128906-4.472657-1.265624 5.984376-1.945312 12.089844-1.945312 18.304688 0 48.519531 39.480469 88 88 88s88-39.480469 88-88-39.480469-88-88-88c-6.214844 0-12.320312.679688-18.296875 1.953125 1.671875-3.960937 3.191406-7.992187 4.472656-12.128906zm-85.457031 87.007812 19.570312 11.625 42.734375-42.734375-11.617187-19.570312c6.082031-1.640625 12.355469-2.542969 18.769531-2.542969 39.695312 0 72 32.304688 72 72 0 39.703125-32.304688 72-72 72s-72-32.296875-72-72c0-6.414062.902344-12.6875 2.542969-18.777344zm261.457031 36.554688-25.710938 6.496094-.898437 5.09375c-4.261719 24.175781-13.574219 46.664062-27.671875 66.816406l-2.964844 4.242187 13.582032 22.78125-25.136719 25.128907-22.785157-13.582032-4.238281 2.964844c-20.144531 14.105469-42.625 23.417969-66.808593 27.679688l-5.09375.898437-6.503907 25.703125h-35.539062l-6.496094-25.710938-5.09375-.898437c-24.183594-4.261719-46.664063-13.574219-66.808594-27.679687l-4.238281-2.96875-22.785156 13.585937-25.136719-25.128906 13.585937-22.785157-2.96875-4.238281c-14.105468-20.152343-23.410156-42.632812-27.671874-66.816406l-.898438-5.09375-25.71875-6.488281v-38.914063c5.855469 2.847657 11.894531 5.367188 18.175781 7.3125l7.609375 29.824219h31.304688c7.980468 67.847656 65.75 120 134.910156 120 74.992188 0 136-61.007812 136-136 0-69.160156-52.152344-126.929688-120-134.902344v-31.3125l-29.832031-7.609375c-1.9375-6.28125-4.457031-12.328125-7.304688-18.175781h38.90625l6.496094 25.710938 5.09375.898437c24.183594 4.261719 46.664063 13.574219 66.808594 27.671875l4.238281 2.964844 22.785156-13.582032 25.136719 25.136719-13.585937 22.785157 2.96875 4.238281c14.097656 20.144531 23.410156 42.625 27.671874 66.808593l.898438 5.09375 25.71875 6.496094zm-192 38.222656v-16c22.054688 0 40-17.945312 40-40h16c0 30.871094-25.121094 56-56 56zm37.726562-69.328125c-1.742187-4.9375-4.40625-9.425781-7.910156-13.335937l11.917969-10.671876c4.90625 5.480469 8.632813 11.761719 11.074219 18.664063zm-45.726562 173.328125h16v16h-16zm126.792969-52.511719 11.3125 11.3125-11.3125 11.3125-11.3125-11.3125zm41.207031-115.488281h16v16h-16zm-41.207031-122.105469 11.3125 11.3125-11.3125 11.3125-11.3125-11.3125zm-237.585938 237.59375 11.3125 11.3125-11.3125 11.3125-11.3125-11.3125zm0 0" fill="url(#linear0)"/></svg>