<svg id="Layer_5" enable-background="new 0 0 64 64" height="512" viewBox="0 0 64 64" width="512" xmlns="http://www.w3.org/2000/svg" xmlns:xlink="http://www.w3.org/1999/xlink"><linearGradient id="SVGID_1_" gradientUnits="userSpaceOnUse" x1="32" x2="32" y1="63" y2="1"><stop offset="0" stop-color="#9f2fff"/><stop offset="1" stop-color="#0bb1d3"/></linearGradient><path d="m58 7h-6c0-3.309-2.243-6-5-6s-5 2.691-5 6h-4c0-3.309-2.243-6-5-6s-5 2.691-5 6h-4c0-3.309-2.243-6-5-6s-5 2.691-5 6c-2.757 0-5 2.243-5 5v35h-8v5c0 2.757 2.243 5 5 5h3v6h50v-4h4v-47c0-2.757-2.243-5-5-5zm-11-4c1.654 0 3 1.794 3 4h-6c0-2.206 1.346-4 3-4zm-14 0c1.654 0 3 1.794 3 4h-6c0-2.206 1.346-4 3-4zm-14 0c1.654 0 3 1.794 3 4h-6c0-2.206 1.346-4 3-4zm-5 6h.292c.689 2.327 2.536 4 4.708 4v-2c-1.105 0-2.062-.81-2.583-2h11.874c.689 2.327 2.536 4 4.708 4v-2c-1.105 0-2.062-.81-2.583-2h11.874c.689 2.327 2.536 4 4.708 4v-2c-1.105 0-2.062-.81-2.583-2h9.608c-.632.838-1.023 1.87-1.023 3v3h-42v-3c0-1.654 1.346-3 3-3zm-3 8h42v35c0 1.654-1.346 3-3 3s-3-1.346-3-3v-5h-36zm-8 35v-3h42v3c0 1.125.373 2.164 1.002 3h-40.002c-1.654 0-3-1.346-3-3zm58 5h-2v-42h-2v46h-46v-4h39c2.757 0 5-2.243 5-5v-40c0-1.654 1.346-3 3-3s3 1.346 3 3zm-4-46h2v2h-2zm-6 8h-38v26h38zm-2 6h-4v-4h4zm-18 8v4h-4v-4zm-4-2v-4h4v4zm6 2h4v4h-4zm0-2v-4h4v4zm6-4h4v4h-4zm0-2v-4h4v4zm-2 0h-4v-4h4zm-6 0h-4v-4h4zm-6 0h-4v-4h4zm0 2v4h-4v-4zm-6 4h-4v-4h4zm0 2v4h-4v-4zm2 0h4v4h-4zm4 6v4h-4v-4zm2 0h4v4h-4zm6 0h4v4h-4zm6 0h4v4h-4zm0-2v-4h4v4zm6-4h4v4h-4zm0-2v-4h4v4zm-26-10v4h-4v-4zm-4 18h4v4h-4zm30 4v-4h4v4zm-40 8h2v2h-2zm4 0h2v2h-2zm4 0h2v2h-2z" fill="url(#SVGID_1_)"/></svg>