<svg height="496pt" viewBox="0 0 496 496" width="496pt" xmlns="http://www.w3.org/2000/svg" xmlns:xlink="http://www.w3.org/1999/xlink"><linearGradient id="a" gradientUnits="userSpaceOnUse" x1="248" x2="248" y1="496" y2="0"><stop offset="0" stop-color="#9f2fff"/><stop offset="1" stop-color="#0bb1d3"/></linearGradient><path d="m360 92v1.480469c0 8.726562-3.167969 17.152343-8.910156 23.710937l-44.457032 50.808594h53.367188v16h-72v-19.007812l51.046875-58.34375c3.191406-3.648438 4.953125-8.320313 4.953125-13.167969v-1.480469c0-11.03125-8.96875-20-20-20s-20 8.96875-20 20v12h-16v-12c0-19.847656 16.152344-36 36-36s36 16.152344 36 36zm80 52h16v16h-16v24h-16v-24h-48v-17.886719l43.054688-86.113281h20.945312zm-16-62.113281-31.054688 62.113281h31.054688zm-202.40625 224.394531 56.0625 56.0625-11.3125 11.3125-56.0625-56.0625c-3.128906 1.503906-6.585938 2.40625-10.28125 2.40625-13.230469 0-24-10.769531-24-24 0-10.414062 6.710938-19.214844 16-22.527344v-97.472656h16v97.472656c9.289062 3.3125 16 12.113282 16 22.527344 0 3.695312-.902344 7.152344-2.40625 10.28125zm-21.59375-2.28125c4.414062 0 8-3.585938 8-8s-3.585938-8-8-8-8 3.585938-8 8 3.585938 8 8 8zm296-176c0 61.222656-43.230469 112.488281-100.761719 125.015625 3.105469 14.121094 4.761719 28.527344 4.761719 42.984375 0 110.28125-89.71875 200-200 200s-200-89.71875-200-200 89.71875-200 200-200c14.457031 0 28.863281 1.65625 42.984375 4.761719 12.527344-57.53125 63.792969-100.761719 125.015625-100.761719 70.574219 0 128 57.425781 128 128zm-253.960938 22.070312c-11.144531-3.214843-22.542968-5.148437-34.039062-5.757812v15.6875h-16v-15.59375c-35.871094 1.882812-68.425781 16.195312-93.503906 38.777344l11 11-11.3125 11.3125-11-11c-22.589844 25.078125-36.894532 57.632812-38.777344 93.503906h15.59375v16h-15.59375c1.882812 35.871094 16.195312 68.425781 38.777344 93.503906l11-11 11.3125 11.3125-11 11c25.078125 22.589844 57.632812 36.894532 93.503906 38.777344v-15.59375h16v15.59375c35.871094-1.882812 68.425781-16.195312 93.503906-38.777344l-11-11 11.3125-11.3125 11 11c22.589844-25.078125 36.894532-57.632812 38.777344-93.503906h-15.59375v-16h15.6875c-.609375-11.503906-2.542969-22.894531-5.757812-34.039062-52.898438-9.25-94.640626-50.992188-103.890626-103.890626zm137.34375 105.355469c-3.757812.335938-7.542968.574219-11.382812.574219-1.671875 0-3.304688-.183594-4.96875-.246094 3.273438 13.199219 4.96875 26.6875 4.96875 40.246094 0 92.632812-75.367188 168-168 168s-168-75.367188-168-168 75.367188-168 168-168c13.558594 0 27.046875 1.695312 40.246094 4.96875-.0625-1.664062-.246094-3.296875-.246094-4.96875 0-3.839844.238281-7.625.574219-11.382812-13.316407-3.007813-26.925781-4.617188-40.574219-4.617188-101.464844 0-184 82.535156-184 184s82.535156 184 184 184 184-82.535156 184-184c0-13.648438-1.609375-27.257812-4.617188-40.574219zm100.617188-127.425781c0-61.761719-50.238281-112-112-112s-112 50.238281-112 112 50.238281 112 112 112 112-50.238281 112-112zm-16 168c0 10.824219-7.238281 19.878906-17.105469 22.871094-5.207031 56.625-29.804687 109.953125-69.796875 150.738281l-11.425781-11.203125c37.222656-37.964844 60.199219-87.542969 65.214844-140.214844-8.71875-3.597656-14.886719-12.183594-14.886719-22.191406 0-13.230469 10.769531-24 24-24s24 10.769531 24 24zm-16 0c0-4.414062-3.585938-8-8-8s-8 3.585938-8 8 3.585938 8 8 8 8-3.585938 8-8zm-270.144531-230.761719c-50.382813 4.808594-98.328125 26.066407-135.589844 60.632813l-10.875-11.734375c40.035156-37.128907 91.578125-60.046875 145.746094-65.039063 2.984375-9.859375 12.046875-17.097656 22.863281-17.097656 13.230469 0 24 10.769531 24 24s-10.769531 24-24 24c-9.960938 0-18.511719-6.105469-22.144531-14.761719zm14.144531-9.238281c0 4.414062 3.585938 8 8 8s8-3.585938 8-8-3.585938-8-8-8-8 3.585938-8 8zm0 0" fill="url(#a)"/></svg>