<svg id="Layer_35" enable-background="new 0 0 64 64" height="512" viewBox="0 0 64 64" width="512" xmlns="http://www.w3.org/2000/svg" xmlns:xlink="http://www.w3.org/1999/xlink"><linearGradient id="SVGID_1_" gradientUnits="userSpaceOnUse" x1="32" x2="32" y1="63" y2="1"><stop offset="0" stop-color="#9f2fff"/><stop offset="1" stop-color="#0bb1d3"/></linearGradient><path d="m53 1c-5.514 0-10 4.486-10 10 0 5.177 3.954 9.446 9 9.949v4.051c0 .551-.448 1-1 1h-5.261c-2.32-5.291-7.601-9-13.739-9-1.151 0-2.267.142-3.344.389l.923-3.443c1.4-.253 2.468-1.474 2.468-2.946 0-1.654-1.346-3-3-3s-3 1.346-3 3c0 1.127.631 2.098 1.552 2.611l-1.202 4.486c-.832.337-1.623.749-2.373 1.223l-2.359-8.801c.828-.535 1.381-1.462 1.381-2.519 0-1.654-1.346-3-3-3s-3 1.346-3 3c0 1.541 1.172 2.799 2.668 2.966l2.578 9.62c-.404.344-.786.711-1.151 1.095l-13.442-13.441c.188-.391.301-.824.301-1.285 0-1.654-1.346-3-3-3s-3 1.346-3 3 1.346 3 3 3c.462 0 .894-.113 1.285-.301l13.573 13.573c-.268.37-.518.752-.752 1.147l-10.094-2.705c-.167-1.497-1.425-2.669-2.966-2.669-1.654 0-3 1.346-3 3s1.346 3 3 3c1.057 0 1.984-.552 2.518-1.381l9.607 2.574c-.242.573-.435 1.169-.605 1.776l-5.909 1.583c-.513-.921-1.485-1.552-2.611-1.552-1.654 0-3 1.346-3 3s1.346 3 3 3c1.472 0 2.693-1.067 2.946-2.467l5.133-1.375c-.074.605-.125 1.217-.125 1.842 0 1.387.204 2.724.558 4h-4.558c-1.654 0-3 1.346-3 3v4.051c-5.046.503-9 4.772-9 9.949 0 5.514 4.486 10 10 10s10-4.486 10-10c0-5.177-3.954-9.446-9-9.949v-4.051c0-.551.448-1 1-1h5.261c2.32 5.291 7.601 9 13.739 9 1.146 0 2.258-.141 3.331-.386l-.91 3.394c-1.4.253-2.467 1.474-2.467 2.946 0 1.654 1.346 3 3 3s3-1.346 3-3c0-1.127-.631-2.098-1.552-2.611l1.189-4.435c.84-.339 1.64-.755 2.397-1.234l2.348 8.762c-.829.534-1.382 1.461-1.382 2.518 0 1.654 1.346 3 3 3s3-1.346 3-3c0-1.541-1.172-2.799-2.668-2.966l-2.568-9.583c.408-.348.794-.721 1.163-1.11l13.42 13.42c-.188.391-.301.823-.301 1.285 0 1.654 1.346 3 3 3s3-1.346 3-3-1.346-3-3-3c-.462 0-.894.113-1.285.301l-13.554-13.554c.27-.374.521-.761.756-1.16l10.07 2.698c.167 1.497 1.426 2.669 2.967 2.669 1.654 0 3-1.346 3-3s-1.346-3-3-3c-1.057 0-1.984.553-2.518 1.381l-9.592-2.57c.241-.576.434-1.174.602-1.783l5.896-1.58c.513.921 1.484 1.552 2.611 1.552 1.654 0 3-1.346 3-3s-1.346-3-3-3c-1.472 0-2.693 1.067-2.946 2.467l-5.126 1.373c.072-.589.119-1.185.119-1.794 0-1.387-.204-2.724-.558-4h4.558c1.654 0 3-1.346 3-3v-4.051c5.046-.503 9-4.773 9-9.949 0-5.514-4.486-10-10-10zm-23.954 9c.552 0 1 .449 1 1s-.448 1-1 1-1-.449-1-1 .448-1 1-1zm-10-2c0-.551.448-1 1-1s1 .449 1 1-.448 1-1 1-1-.449-1-1zm-14.046-.045c-.552 0-1-.449-1-1s.448-1 1-1 1 .449 1 1-.448 1-1 1zm1.046 15.045c-.552 0-1-.449-1-1s.448-1 1-1 1 .449 1 1-.448 1-1 1zm3 9c-.552 0-1-.449-1-1s.448-1 1-1 1 .449 1 1-.448 1-1 1zm-2.838 27.39c1.125-1.491 2.895-2.39 4.792-2.39s3.667.899 4.792 2.391c-1.337 1.005-2.993 1.609-4.792 1.609s-3.455-.604-4.792-1.61zm1.792-7.39c0-1.654 1.346-3 3-3s3 1.346 3 3-1.346 3-3 3-3-1.346-3-3zm11 1c0 1.893-.665 3.633-1.768 5.005-.792-.986-1.796-1.763-2.931-2.278 1.034-.918 1.699-2.24 1.699-3.727 0-2.757-2.243-5-5-5s-5 2.243-5 5c0 1.487.665 2.809 1.699 3.726-1.135.516-2.139 1.293-2.931 2.278-1.104-1.371-1.768-3.111-1.768-5.004 0-4.411 3.589-8 8-8s8 3.589 8 8zm15.954.955c-.552 0-1-.449-1-1s.448-1 1-1 1 .449 1 1-.448 1-1 1zm10 2c0 .551-.448 1-1 1s-1-.449-1-1 .448-1 1-1 1 .448 1 1zm14.046.045c.552 0 1 .449 1 1s-.448 1-1 1-1-.449-1-1 .448-1 1-1zm-1.046-15.045c.552 0 1 .449 1 1s-.448 1-1 1-1-.449-1-1 .448-1 1-1zm-3-9c.552 0 1 .449 1 1s-.448 1-1 1-1-.449-1-1 .448-1 1-1zm-22.954-12.955c7.168 0 13 5.832 13 13 0 3.009-1.037 5.775-2.76 7.981-1.131-2.875-3.434-5.12-6.266-6.225 1.826-1.265 3.026-3.372 3.026-5.756 0-3.86-3.141-7-7-7s-7 3.14-7 7c0 2.384 1.2 4.491 3.026 5.756-2.832 1.105-5.135 3.35-6.266 6.225-1.723-2.206-2.76-4.972-2.76-7.981 0-7.168 5.832-13 13-13zm-5 9c0-2.757 2.243-5 5-5s5 2.243 5 5-2.243 5-5 5-5-2.243-5-5zm7.713 7.43-2.713 7.598-2.713-7.598c.862-.275 1.772-.43 2.713-.43s1.851.155 2.713.43zm-7.259.814 3.096 8.67c-2.767-.309-5.267-1.495-7.233-3.266.627-2.317 2.146-4.234 4.137-5.404zm9.092 0c1.992 1.17 3.51 3.087 4.137 5.404-1.966 1.771-4.466 2.957-7.233 3.266zm13.454-26.244c0-1.654 1.346-3 3-3s3 1.346 3 3-1.346 3-3 3-3-1.346-3-3zm-1.792 7.39c1.125-1.491 2.895-2.39 4.792-2.39s3.667.899 4.792 2.391c-1.337 1.005-2.993 1.609-4.792 1.609s-3.455-.604-4.792-1.61zm11.024-1.385c-.792-.986-1.796-1.763-2.931-2.278 1.034-.918 1.699-2.24 1.699-3.727 0-2.757-2.243-5-5-5s-5 2.243-5 5c0 1.487.665 2.809 1.699 3.726-1.135.516-2.139 1.293-2.931 2.278-1.104-1.371-1.768-3.111-1.768-5.004 0-4.411 3.589-8 8-8s8 3.589 8 8c0 1.893-.665 3.633-1.768 5.005z" fill="url(#SVGID_1_)"/></svg>