<svg id="Layer_3" enable-background="new 0 0 64 64" height="512" viewBox="0 0 64 64" width="512" xmlns="http://www.w3.org/2000/svg" xmlns:xlink="http://www.w3.org/1999/xlink"><linearGradient id="SVGID_1_" gradientUnits="userSpaceOnUse" x1="32" x2="32" y1="63" y2="1"><stop offset="0" stop-color="#9f2fff"/><stop offset="1" stop-color="#0bb1d3"/></linearGradient><path d="m61 20c0-2.757-2.243-5-5-5h-9v-9c0-2.757-2.243-5-5-5h-20c-2.757 0-5 2.243-5 5v9h-9c-2.757 0-5 2.243-5 5v33h-2v5c0 2.757 2.243 5 5 5h52c2.757 0 5-2.243 5-5v-5h-2zm-42 19h26v3c0 1.654-1.346 3-3 3h-20c-1.654 0-3-1.346-3-3zm26-2h-26v-26h26zm-23 10h20c2.757 0 5-2.243 5-5v-21h8v28h-46v-28h8v21c0 2.757 2.243 5 5 5zm0-44h20c1.654 0 3 1.346 3 3v3h-26v-3c0-1.654 1.346-3 3-3zm-17 17c0-1.654 1.346-3 3-3h9v2h-8c-1.103 0-2 .897-2 2v28c0 1.103.897 2 2 2h46c1.103 0 2-.897 2-2v-28c0-1.103-.897-2-2-2h-8v-2h9c1.654 0 3 1.346 3 3v33h-54zm56 38c0 1.654-1.346 3-3 3h-52c-1.654 0-3-1.346-3-3v-3h58zm-23-51h-2v-2h2zm-4 0h-8v-2h8zm3 36h-10v-2h10zm4 0h-2v-2h2zm-16 0h-2v-2h2zm18-8v-22h-22v22zm-20-20h18v18h-18zm14 44h-10v-2h10zm4 0h-2v-2h2zm-16 0h-2v-2h2zm11.658-32.789-1.513-.756c.549-.7.855-1.564.855-2.455v-2c0-1.092-.455-2.15-1.247-2.902-.804-.762-1.847-1.15-2.966-1.092-2.124.111-3.787 1.94-3.787 4.164v1.83c0 .891.306 1.755.854 2.455l-1.513.756c-1.444.722-2.341 2.174-2.341 3.789v1h14v-1c0-1.615-.897-3.067-2.342-3.789zm-9.424 2.789c.211-.425.558-.778 1.002-1l2.764-1.382v-1.842l-.331-.298c-.431-.389-.669-.914-.669-1.478v-1.83c0-1.14.848-2.112 1.891-2.167.557-.029 1.083.165 1.485.546s.624.897.624 1.451v2c0 .564-.238 1.089-.669 1.478l-.331.298v1.842l2.764 1.382c.445.222.791.575 1.002 1zm-16.234-6h4v2h-4zm0 4h4v2h-4zm0 4h4v2h-4zm0 4h4v2h-4zm42 12h-4v-2h4zm0-4h-4v-2h4zm0-4h-4v-2h4zm0-4h-4v-2h4zm0-4h-4v-2h4z" fill="url(#SVGID_1_)"/></svg>