<svg id="Layer_5" enable-background="new 0 0 64 64" height="512" viewBox="0 0 64 64" width="512" xmlns="http://www.w3.org/2000/svg" xmlns:xlink="http://www.w3.org/1999/xlink"><linearGradient id="SVGID_1_" gradientUnits="userSpaceOnUse" x1="32" x2="32" y1="63" y2="1"><stop offset="0" stop-color="#9f2fff"/><stop offset="1" stop-color="#0bb1d3"/></linearGradient><path d="m60 1h-56c-1.654 0-3 1.346-3 3v40c0 1.654 1.346 3 3 3h27c0 8.822 7.178 16 16 16s16-7.178 16-16v-43c0-1.654-1.346-3-3-3zm-56 2h56c.551 0 1 .449 1 1v5h-58v-5c0-.551.449-1 1-1zm42 43.586-9.568 9.568c-2.132-2.457-3.432-5.653-3.432-9.154 0-7.382 5.747-13.433 13-13.949zm-8.154 10.982 9.154-9.154 9.154 9.154c-2.457 2.132-5.653 3.432-9.154 3.432s-6.697-1.3-9.154-3.432zm19.722-1.414-9.568-9.568v-13.535c7.253.516 13 6.567 13 13.949 0 3.501-1.3 6.697-3.432 9.154zm-10.568-25.154c-8.144 0-14.872 6.12-15.861 14h-27.139c-.551 0-1-.449-1-1v-33h58v28.271c-2.731-4.926-7.98-8.271-14-8.271zm-12 16c0-5.346 3.589-10.095 8.728-11.548l.544 1.925c-4.282 1.21-7.272 5.167-7.272 9.623zm2.165 1.819c.115.621.289 1.233.517 1.818l-1.863.728c-.274-.703-.483-1.438-.621-2.183zm18.745-6.364 1.781-.91c.331.647.604 1.328.811 2.024l-1.917.57c-.172-.578-.399-1.145-.675-1.684zm.768 7.073 1.936.503c-.183.703-.432 1.393-.74 2.051l-1.812-.848c.257-.548.464-1.122.616-1.706zm.264-3.609 1.988-.214c.047.427.07.862.07 1.295 0 .296-.011.591-.032.882l-1.995-.146c.018-.243.027-.488.027-.736 0-.365-.02-.726-.058-1.081zm-45.942-38.919h-2v-2h2zm-4 0h-2v-2h2zm8 0h-2v-2h2zm7 6h-14c-1.654 0-3 1.346-3 3v8c0 1.654 1.346 3 3 3h14c1.654 0 3-1.346 3-3v-8c0-1.654-1.346-3-3-3zm1 11c0 .551-.449 1-1 1h-14c-.551 0-1-.449-1-1v-8c0-.551.449-1 1-1h14c.551 0 1 .449 1 1zm-1 5h-14c-1.654 0-3 1.346-3 3v8c0 1.654 1.346 3 3 3h14c1.654 0 3-1.346 3-3v-8c0-1.654-1.346-3-3-3zm1 11c0 .551-.449 1-1 1h-14c-.551 0-1-.449-1-1v-8c0-.551.449-1 1-1h14c.551 0 1 .449 1 1zm-2.707-23.707 1.414 1.414-5.707 5.707-3-3-3.293 3.293-1.414-1.414 4.707-4.707 3 3zm-1.293 20.707h2v2h-12v-6h2v4h2v-2h2v2h2v-4h2zm12-22h-2v-2h2zm28-2v2h-26v-2zm-30 4h30v2h-30zm6 6h-6v-2h6zm2-2h22v2h-22zm-8 4h18v2h-18zm20 0h2v2h-2zm8 0h2v2h-2zm-4 0h2v2h-2z" fill="url(#SVGID_1_)"/></svg>