<svg height="496pt" viewBox="0 0 496 496" width="496pt" xmlns="http://www.w3.org/2000/svg" xmlns:xlink="http://www.w3.org/1999/xlink"><linearGradient id="a" gradientUnits="userSpaceOnUse" x1="248" x2="248" y1="496" y2="0"><stop offset="0" stop-color="#9f2fff"/><stop offset="1" stop-color="#0bb1d3"/></linearGradient><path d="m478.367188 217.792969-46.367188-24.730469v-193.0625h-368v193.0625l-46.367188 24.730469c-10.871093 5.800781-17.632812 17.0625-17.632812 29.390625v7.503906c0 18.367188 14.945312 33.3125 33.3125 33.3125 5.09375 0 10.113281-1.238281 14.6875-3.496094v163.496094h-8c-22.054688 0-40 17.945312-40 40v8h496v-8c0-22.054688-17.945312-40-40-40h-8v-163.488281c4.566406 2.25 9.59375 3.488281 14.6875 3.488281 18.367188 0 33.3125-14.945312 33.3125-33.3125v-7.503906c0-12.328125-6.761719-23.589844-17.632812-29.390625zm-398.367188-201.792969h336v168.527344l-32-17.0625v-119.464844h-94.28125c.664062-6.144531-.398438-11.441406-5.6875-14.503906-9.222656-5.335938-17.863281 3.839844-26.214844 12.710937-2.832031 2.992188-7.351562 7.800781-9.816406 9.378907-2.464844-1.578126-6.984375-6.378907-9.808594-9.386719-8.375-8.871094-17.046875-18.039063-26.222656-12.710938-5.28125 3.070313-6.34375 8.367188-5.679688 14.511719h-94.289062v119.464844l-32 17.0625zm130.105469 48c1.109375 3.710938 2.636719 8.945312 2.878906 11.6875-2.601563 1.167969-8.289063 2.488281-11.894531 3.328125-12.335938 2.878906-25.089844 5.855469-25.089844 16.984375 0 11.121094 12.753906 14.105469 25.078125 16.976562 2.53125.589844 6.050781 1.421876 8.84375 2.261719l-81.921875 43.699219v-94.9375zm15.078125 69.425781c3.054687-10.195312 5.695312-19 2.015625-25.386719-3.589844-6.222656-12.34375-8.269531-22.488281-10.640624-1.65625-.390626-3.726563-.871094-5.765626-1.398438 2.039063-.527344 4.109376-1.015625 5.773438-1.398438 10.136719-2.371093 18.882812-4.417968 22.480469-10.648437 3.679687-6.378906 1.039062-15.175781-2.015625-25.386719-.359375-1.191406-.785156-2.613281-1.199219-4.09375.925781.96875 1.808594 1.894532 2.558594 2.703125 7.441406 7.894531 13.863281 14.726563 21.457031 14.726563s14.015625-6.832032 21.464844-14.734375c.75-.800781 1.632812-1.726563 2.550781-2.695313-.421875 1.480469-.839844 2.894532-1.199219 4.101563-3.054687 10.195312-5.695312 19-2.015625 25.386719 3.589844 6.222656 12.34375 8.269531 22.488281 10.640624 1.65625.390626 3.726563.871094 5.765626 1.398438-2.039063.527344-4.109376 1.015625-5.773438 1.398438-10.136719 2.371093-18.882812 4.417968-22.480469 10.648437-3.679687 6.378906-1.039062 15.175781 2.015625 25.386719.359375 1.191406.785156 2.613281 1.199219 4.09375-.925781-.96875-1.808594-1.894532-2.558594-2.703125-7.441406-7.894531-13.863281-14.726563-21.457031-14.726563s-14.015625 6.832032-21.464844 14.734375c-.75.800781-1.632812 1.726563-2.550781 2.695313.421875-1.480469.847656-2.902344 1.199219-4.101563zm60.90625-18.1875c2.789062-.839843 6.292968-1.664062 8.820312-2.253906 12.335938-2.878906 25.089844-5.855469 25.089844-16.984375 0-11.121094-12.753906-14.105469-25.078125-16.976562-3.609375-.839844-9.296875-2.167969-11.90625-3.335938.230469-2.742188 1.769531-7.976562 2.878906-11.6875h82.105469v94.929688zm192.542968 364.761719h-461.265624c3.304687-9.3125 12.199218-16 22.632812-16h416c10.433594 0 19.328125 6.6875 22.632812 16zm-366.632812-80h16v-16h-16v-56c0-13.230469 10.769531-24 24-24h48c13.230469 0 24 10.769531 24 24v120h-96zm112 48v-120c0-22.054688-17.945312-40-40-40h-48c-22.054688 0-40 17.945312-40 40v120h-32v-172.441406l184-104.511719 184 104.511719v172.441406zm256-193.3125c0 9.542969-7.769531 17.3125-17.3125 17.3125-2.984375 0-5.945312-.785156-8.542969-2.257812l-206.144531-117.09375-206.136719 117.085937c-2.605469 1.480469-5.566406 2.265625-8.550781 2.265625-9.542969 0-17.3125-7.769531-17.3125-17.3125v-7.503906c0-6.40625 3.511719-12.253906 9.167969-15.273438l183.128906-97.652344c-2.800781 10.070313-4.265625 19.636719 3.679687 24.253907 1.886719 1.097656 3.765626 1.578125 5.609376 1.578125 7.140624 0 13.964843-7.242188 20.605468-14.289063 2.832032-3 7.351563-7.808593 9.816406-9.386719 2.464844 1.578126 6.984376 6.378907 9.808594 9.386719 8.367188 8.863281 17.03125 18.007813 26.222656 12.710938 7.945313-4.617188 6.472657-14.191407 3.671876-24.265625l183.128906 97.664062c5.648437 3.019532 9.160156 8.875 9.160156 15.273438zm-224 17.3125v112h144v-112zm128 48h-48v-32h48zm-64-32v32h-48v-32zm-48 48h48v32h-48zm64 32v-32h48v32zm-208 0h64v-48h-64zm16-32h32v16h-32zm0 0" fill="url(#a)"/></svg>