<svg id="Layer_5" enable-background="new 0 0 64 64" height="512" viewBox="0 0 64 64" width="512" xmlns="http://www.w3.org/2000/svg" xmlns:xlink="http://www.w3.org/1999/xlink"><linearGradient id="SVGID_1_" gradientUnits="userSpaceOnUse" x1="32" x2="32" y1="63" y2="1"><stop offset="0" stop-color="#9f2fff"/><stop offset="1" stop-color="#0bb1d3"/></linearGradient><path d="m55 4c0-1.654-1.346-3-3-3h-40c-1.654 0-3 1.346-3 3v17.649l-8 10v31.351h62v-31.351l-8-10zm-33.1 39.852-18.9 15.992v-26.169zm3.692-.504c1.788-1.514 4.064-2.348 6.408-2.348s4.62.834 6.408 2.348l20.862 17.652h-54.54zm16.508.504 18.9-10.177v26.169zm-1.641-1.389-.759-.643c-2.149-1.818-4.884-2.82-7.7-2.82s-5.551 1.002-7.7 2.82l-.76.643-12.54-6.753v-24.71h15.414l2-2h24.586v26.71zm-28.459-39.463h40c.551 0 1 .448 1 1v3h-25.414l-2 2h-14.586v-5c0-.552.449-1 1-1zm-3 31.633-5.47-2.945 5.47-6.837zm51.47-2.945-5.47 2.945v-9.782zm-28.47 11.312c-3.86 0-7 3.141-7 7v2c0 3.859 3.14 7 7 7v-2c-2.757 0-5-2.243-5-5v-2c0-2.757 2.243-5 5-5s5 2.243 5 5v6c0 .552-.449 1-1 1s-1-.448-1-1v-4-1-1c0-1.654-1.346-3-3-3s-3 1.346-3 3v2c0 1.654 1.346 3 3 3 .352 0 .686-.072 1-.184v1.184c0 1.654 1.346 3 3 3s3-1.346 3-3v-6c0-3.859-3.14-7-7-7zm0 10c-.551 0-1-.448-1-1v-2c0-.552.449-1 1-1s1 .448 1 1v1 1c0 .552-.449 1-1 1zm-17-46h-2v-2h2zm8 0h-2v-2h2zm-4 0h-2v-2h2zm26 20h2v2h-2zm-4 0h2v2h-2zm8 0h2v2h-2zm-20 6h-2v-16h-6v16h-2v-10h-6v12h22v-24h-6zm-12 0h-2v-8h2zm6-14h2v14h-2zm8-6h2v20h-2zm6 10h14v2h-14zm0-4h14v2h-14zm10-2h-10v-2h10zm2-2h2v2h-2zm2-4v2h-14v-2zm6 34h2v2h-2zm2-8v2h-2v-2zm-2 4h2v2h-2zm-50 10h-2v-2h2zm0-4h-2v-2h2zm-2 8v-2h2v2z" fill="url(#SVGID_1_)"/></svg>