<svg id="Layer_3" enable-background="new 0 0 64 64" height="512" viewBox="0 0 64 64" width="512" xmlns="http://www.w3.org/2000/svg" xmlns:xlink="http://www.w3.org/1999/xlink"><linearGradient id="SVGID_1_" gradientUnits="userSpaceOnUse" x1="32" x2="32" y1="63" y2="1"><stop offset="0" stop-color="#9f2fff"/><stop offset="1" stop-color="#0bb1d3"/></linearGradient><path d="m18 39h2v2h-2zm4 3h2v-2h-2zm-4 15h2v-2h-2zm4 1h2v-2h-2zm22-9h2v-2h-2zm-4 1h2v-2h-2zm12.54-39.055-8.79 11.722c5.192 1.656 8.25 4.342 8.25 7.333v24c0 5.047-8.785 9-20 9s-20-3.953-20-9v-24c0-3.09 3.224-5.831 8.695-7.472l-9.263-13.585c-1.383-.267-2.432-1.483-2.432-2.943v-2c0-1.654 1.346-3 3-3h40c1.654 0 3 1.346 3 3v4c0 1.469-1.063 2.689-2.46 2.945zm-28.008 17.21c-2.769.964-4.532 2.432-4.532 3.845 0 1.614 2.297 3.351 6 4.294v-5.985zm7.468 8.845c1.431 0 2.768-.112 4-.304v-5.696h-8v5.696c1.232.192 2.569.304 4 .304zm12-5c0-1.406-1.676-2.829-4.4-3.8l-1.6 2.133v5.96c3.703-.942 6-2.679 6-4.293zm6-21h-10.414l-2-2h-23.694l13.636 20h8.972zm-39-5c0 .552.449 1 1 1h26.414l2 2h11.586c.551 0 1-.448 1-1v-4c0-.552-.449-1-1-1h-40c-.551 0-1 .448-1 1zm3 24c0 1.669 1.883 3.434 5.107 4.774-.713-.847-1.107-1.783-1.107-2.774 0-2.237 1.982-4.261 5.365-5.557l-1.484-2.176c-4.809 1.326-7.881 3.542-7.881 5.733zm36 24v-4.036c-3.206 3.004-9.97 5.036-18 5.036s-14.794-2.032-18-5.036v4.036c0 3.311 7.392 7 18 7s18-3.689 18-7zm0-8v-4.036c-3.206 3.004-9.97 5.036-18 5.036s-14.794-2.032-18-5.036v4.036c0 3.311 7.392 7 18 7s18-3.689 18-7zm0-8v-4.036c-3.206 3.004-9.97 5.036-18 5.036s-14.794-2.032-18-5.036v4.036c0 3.311 7.392 7 18 7s18-3.689 18-7zm-7.526-13.632-1.621 2.162c3.286 1.301 5.147 3.252 5.147 5.47 0 .991-.394 1.927-1.107 2.774 3.224-1.34 5.107-3.105 5.107-4.774 0-2.122-2.934-4.299-7.526-5.632zm8.526-19.368h-2v2h2zm-4 0h-2v2h2zm-4 0h-2v2h2zm-23.327 5.379-1.652 1.127 1.442 2.114 1.652-1.127zm21.257 6.048-1.2 1.6 1.6 1.201 1.2-1.6zm-3.6 4.8 1.6 1.201 1.2-1.6-1.6-1.201zm-2.4 3.2 1.6 1.201 1.2-1.6-1.6-1.201zm-14.793-9.818 6.782 9.946 1.652-1.127-6.782-9.946z" fill="url(#SVGID_1_)"/></svg>