<svg height="496pt" viewBox="0 0 496 496" width="496pt" xmlns="http://www.w3.org/2000/svg" xmlns:xlink="http://www.w3.org/1999/xlink"><linearGradient id="a" gradientUnits="userSpaceOnUse" x1="248" x2="248" y1="496" y2="0"><stop offset="0" stop-color="#9f2fff"/><stop offset="1" stop-color="#0bb1d3"/></linearGradient><path d="m144 216h16c0 8.824219 7.175781 16 16 16s16-7.175781 16-16h16c0 17.648438-14.351562 32-32 32s-32-14.351562-32-32zm-8-40c4.414062 0 8-3.585938 8-8s-3.585938-8-8-8-8 3.585938-8 8 3.585938 8 8 8zm80 0c4.414062 0 8-3.585938 8-8s-3.585938-8-8-8-8 3.585938-8 8 3.585938 8 8 8zm227.3125 64 52.6875 52.6875v203.3125h-224v-48h-272v-77.40625c0-24.144531 15.390625-45.496094 38.289062-53.121094l81.710938-27.242187v-22.40625c-13.6875-11.320313-23.824219-26.726563-28.710938-44.304688-19.816406-2.359375-35.289062-19.078125-35.289062-39.519531v-64c0-66.167969 53.832031-120 120-120s120 53.832031 120 120v64c0 20.441406-15.472656 37.160156-35.289062 39.519531-4.886719 17.578125-15.023438 32.984375-28.710938 44.304688v22.40625l40 13.335937v-63.566406zm4.6875 48h20.6875l-20.6875-20.6875zm-221.839844 17.152344-37.824218 37.824218 38.238281 27.320313 12.195312-60.945313zm53.839844-121.152344c0-10.414062-6.710938-19.214844-16-22.527344v38.527344c0 2.238281-.167969 4.433594-.335938 6.632812 9.464844-3.21875 16.335938-12.097656 16.335938-22.632812zm-191.664062 22.632812c-.167969-2.199218-.335938-4.394531-.335938-6.632812v-38.527344c-9.289062 3.3125-16 12.113282-16 22.527344 0 10.535156 6.871094 19.414062 16.335938 22.632812zm43.664062-94.632812c9.464844 0 18.832031 3.128906 26.40625 8.808594l17.59375 13.191406 17.601562-13.191406c7.566407-5.679688 16.933594-8.808594 26.398438-8.808594 20.328125 0 37.441406 13.886719 42.464844 32.65625 6.527344 1.070312 12.472656 3.71875 17.535156 7.550781v-32.207031c0-57.34375-46.65625-104-104-104s-104 46.65625-104 104v32.207031c5.0625-3.832031 11.007812-6.480469 17.535156-7.550781 5.023438-18.769531 22.136719-32.65625 42.464844-32.65625zm44 160c39.703125 0 72-32.296875 72-72v-44c0-15.441406-12.558594-28-28-28-6.023438 0-11.984375 1.992188-16.800781 5.601562l-27.199219 20.398438-27.191406-20.398438c-4.824219-3.609374-10.785156-5.601562-16.808594-5.601562-15.441406 0-28 12.558594-28 28v44c0 39.703125 32.296875 72 72 72zm-40 6.289062v14.398438l40 40 40-40v-14.398438c-12.015625 6.160157-25.59375 9.710938-40 9.710938s-27.984375-3.550781-40-9.710938zm-22.769531 31.0625 12.195312 60.945313 38.238281-27.320313-37.824218-37.824218zm158.769531 122.648438v-111.574219l-17.9375-5.976562-16.648438 83.246093-61.414062-43.863281-61.425781 43.871094-16.644531-83.246094-54.585938 18.191407c-16.351562 5.457031-27.34375 20.703124-27.34375 37.945312v61.40625h48v-48h16v48zm208 48v-176h-48v-48h-144v224zm-96-96h80v80h-80zm16 64h48v-48h-48zm-96 16h64v-16h-64zm0-32h64v-16h-64zm0-32h64v-16h-64zm16-128h-16v16h16zm96 0h-80v16h80zm0 32h-112v16h112zm32 48h16v-16h-16zm-16-16h-128v16h128zm47.59375-250.984375c10.285156 14.398437 16.40625 31.976563 16.40625 50.984375 0 48.519531-39.480469 88-88 88s-88-39.480469-88-88 39.480469-88 88-88c23.71875 0 45.238281 9.480469 61.089844 24.792969l13.015625-14.199219 11.796875 10.8125zm-11.089844 12.097656-67.65625 73.808594-45.839844-36.675781 10-12.492188 34.160157 27.324219 59.136719-64.511719c-13-12.703125-30.746094-20.566406-50.304688-20.566406-39.703125 0-72 32.296875-72 72s32.296875 72 72 72 72-32.296875 72-72c0-14.328125-4.257812-27.65625-11.496094-38.886719zm0 0" fill="url(#a)"/></svg>