<svg id="Layer_35" enable-background="new 0 0 64 64" height="512" viewBox="0 0 64 64" width="512" xmlns="http://www.w3.org/2000/svg" xmlns:xlink="http://www.w3.org/1999/xlink"><linearGradient id="SVGID_1_" gradientUnits="userSpaceOnUse" x1="32" x2="32" y1="63" y2="1"><stop offset="0" stop-color="#9f2fff"/><stop offset="1" stop-color="#0bb1d3"/></linearGradient><path d="m37 23c0-.552.448-1 1-1s1 .448 1 1-.448 1-1 1-1-.448-1-1zm-11-1c-.552 0-1 .448-1 1s.448 1 1 1 1-.448 1-1-.448-1-1-1zm10 10h-2c0 1.103-.897 2-2 2s-2-.897-2-2h-2c0 2.206 1.794 4 4 4s4-1.794 4-4zm-12.936-20.416-1.624-1.168c-.489.68-.913 1.409-1.261 2.167l1.817.834c.295-.641.654-1.258 1.068-1.833zm8.936-4.584v-2c-3.17 0-6.224 1.154-8.599 3.25l1.323 1.499c2.009-1.772 4.593-2.749 7.276-2.749zm27 55v1h-54v-1c0-6.482 3.877-12.257 9.877-14.712l10.259-4.197c1.133-.463 1.864-1.553 1.864-2.777v-.718c-3.077-2.126-5.427-5.126-6.759-8.597h-.241c-2.757 0-5-2.243-5-5v-8.931c0-8.86 7.208-16.068 16.069-16.068 4.696 0 9.144 2.045 12.201 5.611l1.292 1.507c2.629.805 4.438 3.229 4.438 6.005v11.877c0 2.757-2.243 5-5 5h-.241c-1.332 3.471-3.682 6.47-6.759 8.597v.718c0 1.224.731 2.313 1.864 2.776l10.259 4.198c6 2.454 9.877 8.229 9.877 14.711zm-20.893-17.058c-.243-.099-.474-.218-.694-.35l-3.873 3.389 3.81 3.174 1.206-6.03zm-7.139 5.219.018.003-1.806 10.836h5.639l-1.806-10.835.018-.003-1.031-.86zm16.032-24.161c0-1.302-.839-2.402-2-2.816v1.167c0 1.582-.207 3.125-.586 4.607 1.457-.204 2.586-1.446 2.586-2.958zm-30-8.931v4.956c.584-.442 1.257-.773 2-.924v-.836c0-1.746.93-3.389 2.427-4.287l3.728-2.237 2.939 2.939 3.906-2.93 3.906 2.93 2.939-2.939 3.728 2.237c1.497.897 2.427 2.541 2.427 4.287v.836c.743.152 1.416.482 2 .924v-7.903c0-1.968-1.333-3.675-3.243-4.153l-.309-.078-1.697-1.979c-2.676-3.121-6.57-4.912-10.682-4.912-7.757 0-14.069 6.312-14.069 14.069zm2.586 11.889c-.379-1.482-.586-3.025-.586-4.607v-1.167c-1.161.414-2 1.514-2 2.816 0 1.512 1.129 2.754 2.586 2.958zm12.414 10.984c6.594-2.345 11-8.568 11-15.591v-4.086c0-1.048-.558-2.033-1.457-2.572l-2.389-1.433-3.061 3.061-4.093-3.071-4.094 3.07-3.061-3.061-2.389 1.433c-.898.539-1.456 1.525-1.456 2.573v4.086c0 7.024 4.406 13.247 11 15.591zm-3.036.854c-.086.892-.399 1.724-.904 2.428l3.94 3.447 3.94-3.448c-.505-.704-.818-1.536-.904-2.428-.864.45-1.772.837-2.719 1.152l-.317.107-.316-.105c-.947-.316-1.856-.703-2.72-1.153zm-3.071 4.146-.448.183 1.206 6.03 3.81-3.174-3.873-3.389c-.221.133-.452.251-.695.35zm-18.858 16.058h7.965v-6h2v6h10.153l1.482-8.894-3.286 2.739-1.789-8.947-7.926 3.242c-4.934 2.018-8.226 6.605-8.599 11.86zm49.93 0c-.373-5.255-3.665-9.842-8.599-11.86l-7.926-3.243-1.789 8.947-3.286-2.739 1.482 8.895h10.153v-6h2v6zm-17.965-2h4v-2h-4zm-14-2h-4v2h4z" fill="url(#SVGID_1_)"/></svg>