<svg height="496pt" viewBox="0 0 496 496" width="496pt" xmlns="http://www.w3.org/2000/svg" xmlns:xlink="http://www.w3.org/1999/xlink"><linearGradient id="a" gradientUnits="userSpaceOnUse" x1="248" x2="248" y1="496" y2="0"><stop offset="0" stop-color="#9f2fff"/><stop offset="1" stop-color="#0bb1d3"/></linearGradient><path d="m120 32h80v16h-80zm24 64h-16v88h-16v-64h-16v64h-16v-40h-16v40h-16v16h112v-16h-16zm-96 136h16v-16h-16zm32 0h80v-16h-80zm416-51.183594v123.183594c0 13.230469-10.769531 24-24 24-2.816406 0-5.488281-.574219-8-1.472656v153.472656h32v16h-496v-16h26.527344l53.472656-137.503906v-22.496094h-80v-48h16v-192h-16v-48h84.6875l32-32h86.625l32 32h84.6875v48h-16v40h-.367188l27.535157 31.472656 44.832031-6.410156v-13.382812c-9.792969-8.792969-16-21.503907-16-35.679688v-16c0-26.472656 21.527344-48 48-48s48 21.527344 48 48v16c0 14.167969-6.207031 26.878906-16 35.679688v13.382812l28.527344 4.074219c15.65625 2.238281 27.472656 15.863281 27.472656 31.679687zm-120-84.816406c0 17.648438 14.351562 32 32 32s32-14.351562 32-32v-16c0-17.648438-14.351562-32-32-32s-32 14.351562-32 32zm48 53.800781v-8.601562c-5.015625 1.777343-10.382812 2.800781-16 2.800781s-10.984375-1.023438-16-2.800781v8.601562c1.960938 3.03125 7.480469 10.199219 16 10.199219 8.503906 0 14.015625-7.136719 16-10.199219zm-15.070312 26.144531c-.3125.007813-.609376.054688-.929688.054688s-.617188-.046875-.929688-.054688l-6.644531 53.167969 7.574219 7.574219 7.574219-7.574219zm-392.929688-111.945312h288v-16h-75.3125l-32-32h-73.375l-32 32h-75.3125zm224 50.207031v-1.703125c0-13.503906 11-24.503906 24.503906-24.503906 7.0625 0 13.792969 3.046875 18.449219 8.367188l5.046875 5.769531v-22.136719h-256v192h256v-89.191406l-42.632812-53.289063c-3.464844-4.335937-5.367188-9.777343-5.367188-15.3125zm64 189.792969v-16h-288v16zm-208 16v16h128v-16zm-37.472656 160 49.777344-128h-14.832032l-49.777344 128zm77.472656-128h-10.527344l-49.777344 128h60.304688zm32 0h-16v128h16zm76.304688 128-49.777344-128h-10.527344v128zm32 0-49.777344-128h-14.832032l49.777344 128zm75.695312-272h-32.3125c-5.871094 0-11.359375-2.183594-15.6875-5.960938v69.960938h16v48h-80v22.496094l53.472656 137.503906h58.527344zm48 80h-32v192h32zm48 0h-32v192h32zm32-107.183594c0-7.914062-5.902344-14.71875-13.734375-15.839844l-30.320313-4.328124c-2.425781 3.273437-6.234374 7.496093-11.464843 10.679687l7.945312 63.566406-24.425781 24.417969-24.425781-24.425781 7.945312-63.566407c-5.238281-3.191406-9.046875-7.410156-11.464843-10.679687l-55.222657 7.886719-53.921875-61.625c-1.613281-1.847656-3.949218-2.902344-6.40625-2.902344-4.6875 0-8.503906 3.816406-8.503906 8.503906v1.703125c0 1.921875.664062 3.816407 1.863281 5.320313l55.578125 69.472656c1.527344 1.902344 3.804688 3 6.246094 3h48.3125v80h80v-80h16v112c0 4.40625 3.59375 8 8 8s8-3.59375 8-8zm-256-20.816406c26.472656 0 48 21.527344 48 48s-21.527344 48-48 48-48-21.527344-48-48 21.527344-48 48-48zm-8 56h-22.863281c2.910156 11.191406 11.671875 19.953125 22.863281 22.863281zm0-38.863281c-11.191406 2.910156-19.953125 11.671875-22.863281 22.863281h22.863281zm16 61.726562c13.761719-3.574219 24-16 24-30.863281s-10.238281-27.289062-24-30.863281zm0 0" fill="url(#a)"/></svg>