<svg id="Layer_3" enable-background="new 0 0 64 64" height="512" viewBox="0 0 64 64" width="512" xmlns="http://www.w3.org/2000/svg" xmlns:xlink="http://www.w3.org/1999/xlink"><linearGradient id="SVGID_1_" gradientUnits="userSpaceOnUse" x1="31.503" x2="31.503" y1="63" y2="1"><stop offset="0" stop-color="#9f2fff"/><stop offset="1" stop-color="#0bb1d3"/></linearGradient><path d="m55 22.314.873-.854 3.662 3.662 2.472-17.3-7.007 1v-7.822h-41.414l-12.586 12.586v49.414h54zm3.121-1.435-2.232-2.233-21.053 20.604-9.02-9.02-14.828 15.344-4.571-4.571 19.408-19.249 9.006 9.006 16.509-16.663-2.391-2.39 10.7-1.528zm-53.707-7.879 8.586-8.586v8.586zm2.586 2h8v-8h34v2.68l-4.293.613 3.811 3.811-6.832 6.896h-13.786l-2.068-2.068-2.086 2.068h-16.746zm32.705 8-4.879 4.925-4.926-4.925zm13.295-13.892-2 .286v-4.394h-36v-2h38zm-50 51.892v-46h2v8h16.729l-18.146 17.997 7.429 7.429 14.828-15.343 8.98 8.98 18.18-17.792v36.729zm2-2h6v-10h-6zm2-8h2v6h-2zm6 8h6v-12h-6zm2-10h2v8h-2zm6 10h6v-20h-6zm2-18h2v16h-2zm6 18h6v-16h-6zm2-14h2v12h-2zm6 14h6v-18h-6zm2-16h2v14h-2zm6 16h6v-26h-6zm2-24h2v22h-2zm-30-26h2v2h-2zm6 0v2h-2v-2zm4 2h-2v-2h2z" fill="url(#SVGID_1_)"/></svg>