<svg height="496pt" viewBox="0 0 496 496" width="496pt" xmlns="http://www.w3.org/2000/svg" xmlns:xlink="http://www.w3.org/1999/xlink"><linearGradient id="a" gradientUnits="userSpaceOnUse" x1="248" x2="248" y1="496" y2="0"><stop offset="0" stop-color="#9f2fff"/><stop offset="1" stop-color="#0bb1d3"/></linearGradient><path d="m455.519531 380.304688-63.519531-18.320313v-16.105469c8.457031-6.789062 15.144531-15.679687 19.289062-25.878906h4.710938c17.648438 0 32-14.351562 32-32v-64c0-50.496094-39.214844-91.921875-88.777344-95.632812-24.070312-75.832032-95.207031-128.367188-175.222656-128.367188-101.457031 0-184 82.542969-184 184s82.542969 184 184 184c41.160156 0 80.886719-13.9375 113.152344-39.183594 3.917968 6.527344 8.9375 12.3125 14.847656 17.0625v16.105469l-63.519531 18.328125c-23.832031 6.863281-40.480469 28.992188-40.480469 53.800781v61.886719h288v-61.886719c0-24.808593-16.648438-46.9375-40.480469-53.808593zm-57.121093.175781-10.789063 37.757812-23.632813-18.902343 22.34375-22.34375zm-48.628907 67.519531h4.460938l10.664062 32h-25.796875zm6.917969-16h-9.375l-10-10 14.6875-11.753906 14.6875 11.753906zm59.3125-128h-.550781c.328125-2.625.550781-5.289062.550781-8v-24c8.824219 0 16 7.175781 16 16s-7.175781 16-16 16zm16-80v36.449219c-4.726562-2.753907-10.144531-4.449219-16-4.449219h-1.472656c-3.3125-9.289062-12.113282-16-22.527344-16h-28.664062c-6.175782 0-12.359376-1.464844-17.886719-4.222656l-17.769531-8.882813c-3.800782-1.894531-8.03125-2.894531-12.265626-2.894531-15.109374 0-27.414062 12.304688-27.414062 27.414062v4.585938c-5.855469 0-11.273438 1.695312-16 4.449219v-59.152344c0-11.679687 7.449219-22.007813 18.527344-25.703125l2.367187-.792969 1.503907-2c13.53125-18.03125 35.058593-28.800781 57.601562-28.800781 44.113281 0 80 35.886719 80 80zm-176-22.703125v86.703125c0 3.511719.710938 6.839844 1.761719 10.007812-22.082031 14.34375-47.417969 21.992188-73.761719 21.992188-74.992188 0-136-61.007812-136-136s61.007812-136 136-136c57.96875 0 108.433594 35.863281 127.824219 89.863281-11.023438 5.664063-20.914063 13.550781-28.753907 23.417969-16.285156 6.519531-27.070312 22.285156-27.070312 40.015625zm16 86.703125c0-8.824219 7.175781-16 16-16v24c0 2.710938.222656 5.375.550781 8h-.550781c-8.824219 0-16-7.175781-16-16zm-256-104c0-92.640625 75.359375-168 168-168 71.40625 0 135.097656 45.824219 158.457031 112.550781-5.386719.59375-10.640625 1.792969-15.785156 3.351563-21.808594-60.0625-78.078125-99.902344-142.671875-99.902344-83.816406 0-152 68.183594-152 152s68.183594 152 152 152c29.433594 0 57.734375-8.527344 82.398438-24.542969 4.585937 4.222657 10.363281 7.078125 16.800781 8.054688-28.6875 21.03125-63.382813 32.488281-99.199219 32.488281-92.640625 0-168-75.359375-168-168zm288 112v-44.585938c0-6.292968 5.121094-11.414062 11.414062-11.414062 1.761719 0 3.53125.414062 5.105469 1.207031l17.769531 8.882813c7.734376 3.871094 16.390626 5.910156 25.046876 5.910156h28.664062c4.40625 0 8 3.59375 8 8v32c0 26.472656-21.527344 48-48 48s-48-21.527344-48-48zm48 64c8.488281 0 16.585938-1.695312 24-4.710938v9.398438l-24 24-24-24v-9.398438c7.414062 3.015626 15.511719 4.710938 24 4.710938zm-34.320312 16.992188 22.34375 22.34375-23.632813 18.902343-10.789063-37.757812zm-93.679688 57.121093c0-17.722656 11.886719-33.519531 28.910156-38.433593l37.3125-10.757813 17.386719 60.839844 17.125-13.707031 10.105469 10.105468-12.609375 37.839844h-50.230469v-40h-16v40h-32zm256 45.886719h-32v-40h-16v40h-50.230469l-12.617187-37.839844 10.105468-10.105468 17.125 13.707031 17.386719-60.839844 37.308594 10.757813c17.035156 4.914062 28.921875 20.710937 28.921875 38.433593zm-288-318.527344v-97.472656h-16v97.472656c-9.289062 3.3125-16 12.113282-16 22.527344 0 3.96875 1.0625 7.664062 2.777344 10.96875l-48.792969 55.765625 12.039063 10.539063 48.382812-55.296876c2.945312 1.289063 6.179688 2.023438 9.59375 2.023438 13.230469 0 24-10.769531 24-24 0-10.414062-6.710938-19.214844-16-22.527344zm-8 30.527344c-4.40625 0-8-3.59375-8-8s3.59375-8 8-8 8 3.59375 8 8-3.59375 8-8 8zm-168 152h-16v-76.871094l14.769531 23.398438c36.917969 58.527344 100.191407 93.472656 169.230469 93.472656v16c-66.039062 0-127.175781-29.59375-168-80.265625zm208-168h16v16h-16zm-80 16h-16v-16h16zm0 0" fill="url(#a)"/></svg>