<svg height="496pt" viewBox="-32 0 496 496" width="496pt" xmlns="http://www.w3.org/2000/svg" xmlns:xlink="http://www.w3.org/1999/xlink"><linearGradient id="a" gradientUnits="userSpaceOnUse" x1="216" x2="216" y1="496" y2="0"><stop offset="0" stop-color="#9f2fff"/><stop offset="1" stop-color="#0bb1d3"/></linearGradient><path d="m216 80c13.230469 0 24-10.769531 24-24s-10.769531-24-24-24-24 10.769531-24 24 10.769531 24 24 24zm0-32c4.414062 0 8 3.585938 8 8s-3.585938 8-8 8-8-3.585938-8-8 3.585938-8 8-8zm-160 160c-13.230469 0-24 10.769531-24 24s10.769531 24 24 24 24-10.769531 24-24-10.769531-24-24-24zm0 32c-4.414062 0-8-3.585938-8-8s3.585938-8 8-8 8 3.585938 8 8-3.585938 8-8 8zm320-64c-10.089844 0-19.535156 2.71875-27.71875 7.40625-17.527344-40.964844-52.96875-71.375-95.9375-82.542969l8.457031-11.261719c7.222657-9.625 11.199219-21.554687 11.199219-33.601562 0-30.871094-25.128906-56-56-56s-56 25.128906-56 56c0 12.046875 3.976562 23.976562 11.199219 33.59375l8.449219 11.269531c-42.96875 11.167969-78.410157 41.578125-95.9375 82.542969-8.175782-4.6875-17.621094-7.40625-27.710938-7.40625-30.871094 0-56 25.128906-56 56 0 12.046875 3.976562 23.976562 11.199219 33.59375l44.800781 59.742188 25.648438-34.199219c9.375 24.617187 25.414062 46.34375 46.351562 62.605469v118.257812c0 13.230469 10.769531 24 24 24h128c13.230469 0 24-10.769531 24-24v-118.257812c12.296875-9.550782 22.953125-20.933594 31.519531-33.742188h.480469c0-.230469-.054688-.457031-.054688-.6875 5.824219-8.816406 10.640626-18.273438 14.414063-28.175781l25.640625 34.199219 44.800781-59.734376c7.222657-9.625 11.199219-21.554687 11.199219-33.601562 0-30.871094-25.128906-56-56-56zm-160-160c22.054688 0 40 17.945312 40 40 0 8.601562-2.839844 17.128906-8 24l-32 42.664062-32-42.671874c-5.160156-6.863282-8-15.390626-8-23.992188 0-22.054688 17.945312-40 40-40zm0 133.335938 25.863281-34.480469c12.792969 2.625 24.9375 7.089843 36.066407 13.242187l-9.296876 4.644532c-7.800781 3.898437-12.632812 11.722656-12.632812 20.425781 0 3.761719-3.070312 6.832031-6.832031 6.832031h-19.023438c-6.007812 0-11.886719 2.441406-16.144531 6.6875l-7.3125 7.3125c-1.273438 1.273438-3.03125 2-4.832031 2h-19.023438c-3.761719 0-6.832031-3.070312-6.832031-6.832031v-4.214844c0-4.921875-1.625-9.792969-4.566406-13.695313l-17.363282-23.152343c11.128907-6.152344 23.28125-10.617188 36.074219-13.25zm-75.449219-12.601563 18.089844 24.121094c.871094 1.167969 1.359375 2.617187 1.359375 4.089843v4.214844c0 12.601563 10.238281 22.839844 22.832031 22.839844h19.023438c6.007812 0 11.886719-2.441406 16.144531-6.6875l7.3125-7.3125c1.273438-1.273438 3.03125-2 4.832031-2h19.023438c12.59375 0 22.832031-10.238281 22.832031-22.832031 0-2.601563 1.449219-4.945313 3.785156-6.113281l17.628906-8.816407c18.507813 14.074219 33.074219 33.160157 41.769532 55.546875-1.832032 1.949219-3.535156 4.015625-5.070313 6.214844h-22.800781c-9.433594 0-18.296875 3.671875-24.96875 10.34375s-10.34375 15.535156-10.34375 24.96875v4.6875h-69.574219l-5.488281-3.65625c-10.066406-6.710938-18.570312-15.214844-25.28125-25.265625-4.609375-6.933594-12.34375-11.078125-20.671875-11.078125-6.640625 0-12.878906 2.585938-17.578125 7.28125-5.621094 5.621094-13.101562 8.71875-21.054688 8.71875h-2.710937c-2.511719-8.40625-6.96875-15.96875-12.824219-22.214844 9-23.183594 24.296875-42.847656 43.734375-57.050781zm3.449219 167.265625h144v112h-144zm0-16v-24c0-4.414062 3.585938-8 8-8h128c4.414062 0 8 3.585938 8 8v24zm-120-32.007812c-5.160156-6.863282-8-15.390626-8-23.992188 0-22.054688 17.945312-40 40-40s40 17.945312 40 40c0 8.601562-2.839844 17.128906-8 24l-32 42.664062zm69.296875 19.609374 7.503906-10c7.222657-9.625 11.199219-21.554687 11.199219-33.601562h.351562c12.222657 0 23.726563-4.761719 32.367188-13.40625 3.769531-3.769531 10.65625-3.105469 13.625 1.359375 4.984375 7.460937 10.902344 14.101563 17.496094 20.046875h-23.839844c-13.230469 0-24 10.769531-24 24v68.65625c-16.351562-15.601562-28.390625-35.296875-34.703125-57.054688zm186.703125 204.398438h-128c-4.414062 0-8-3.585938-8-8v-40h144v40c0 4.414062-3.585938 8-8 8zm24-147.351562v-40.839844c8.265625 4.96875 14.03125 13.328125 15.558594 23-4.613282 6.40625-9.824219 12.367187-15.558594 17.839844zm26.28125-35.558594c-5.527344-10.457032-14.808594-18.625-26.28125-22.867188v-10.222656c0-10.414062-6.710938-19.214844-16-22.527344v-6.160156c0-5.160156 2.007812-10.007812 5.65625-13.65625s8.503906-5.65625 13.65625-5.65625h15.046875c-1.519531 5.070312-2.359375 10.441406-2.359375 16 0 12.046875 3.976562 23.976562 11.199219 33.59375l7.496093 9.992188c-2.152343 7.4375-4.976562 14.621093-8.414062 21.503906zm77.71875-41.089844-32 42.664062-32-42.671874c-5.160156-6.863282-8-15.390626-8-23.992188 0-22.054688 17.945312-40 40-40s40 17.945312 40 40c0 8.601562-2.839844 17.128906-8 24zm-32-48c-13.230469 0-24 10.769531-24 24s10.769531 24 24 24 24-10.769531 24-24-10.769531-24-24-24zm0 32c-4.414062 0-8-3.585938-8-8s3.585938-8 8-8 8 3.585938 8 8-3.585938 8-8 8zm-192 208h64v16h-64zm24.566406-64h16v16h-16zm58.257813-43.625-11.128907 11.503906c-10.589843-10.238281-24.695312-15.878906-39.695312-15.878906s-29.105469 5.640625-39.695312 15.871094l-11.128907-11.503906c13.609375-13.136719 31.65625-20.367188 50.824219-20.367188s37.214844 7.230469 50.824219 20.375zm-50.824219 11.625c10.457031 0 20.335938 3.519531 27.824219 9.910156l-10.390625 12.167969c-9.1875-7.839844-25.671875-7.839844-34.859375 0l-10.390625-12.167969c7.480468-6.390625 17.359375-9.910156 27.816406-9.910156zm0 0" fill="url(#a)"/></svg>